<svg width="369" height="370" xmlns="http://www.w3.org/2000/svg" xmlns:xlink="http://www.w3.org/1999/xlink" overflow="hidden"><defs><clipPath id="clip0"><rect x="212" y="124" width="369" height="370"/></clipPath><clipPath id="clip1"><rect x="213" y="125" width="368" height="369"/></clipPath><clipPath id="clip2"><rect x="213" y="125" width="368" height="369"/></clipPath><clipPath id="clip3"><rect x="213" y="125" width="368" height="369"/></clipPath></defs><g clip-path="url(#clip0)" transform="translate(-212 -124)"><g clip-path="url(#clip1)"><g clip-path="url(#clip2)"><g clip-path="url(#clip3)"><path d="M245.333 115C245.333 148.873 217.873 176.333 184 176.333 150.127 176.333 122.667 148.873 122.667 115 122.667 81.1265 150.127 53.6667 184 53.6667 217.873 53.6667 245.333 81.1265 245.333 115Z" fill="#000000" fill-rule="nonzero" fill-opacity="1" transform="matrix(1 0 0 1.00272 213 125)"/><path d="M306.667 314.333 306.667 253C306.667 243.8 302.067 234.6 294.4 228.467 277.533 214.667 256.067 205.467 234.6 199.333 219.267 194.733 202.4 191.667 184 191.667 167.133 191.667 150.267 194.733 133.4 199.333 111.933 205.467 90.4667 216.2 73.6 228.467 65.9333 234.6 61.3333 243.8 61.3333 253L61.3333 314.333 306.667 314.333Z" fill="#000000" fill-rule="nonzero" fill-opacity="1" transform="matrix(1 0 0 1.00272 213 125)"/></g></g></g></g></svg>