<svg width="284" height="286" xmlns="http://www.w3.org/2000/svg" xmlns:xlink="http://www.w3.org/1999/xlink" overflow="hidden"><defs><clipPath id="clip0"><rect x="688" y="166" width="284" height="286"/></clipPath><clipPath id="clip1"><rect x="688" y="167" width="284" height="284"/></clipPath><clipPath id="clip2"><rect x="688" y="167" width="284" height="284"/></clipPath><clipPath id="clip3"><rect x="688" y="167" width="284" height="284"/></clipPath></defs><g clip-path="url(#clip0)" transform="translate(-688 -166)"><g clip-path="url(#clip1)"><g clip-path="url(#clip2)"><g clip-path="url(#clip3)"><path d="M834.455 354.854C834.455 357.305 832.469 359.292 830.018 359.292 827.567 359.292 825.58 357.305 825.58 354.854 825.58 352.403 827.567 350.417 830.018 350.417 832.469 350.417 834.455 352.403 834.455 354.854Z" fill="#000000" fill-rule="nonzero" fill-opacity="1"/><path d="M834.455 372.604C834.455 375.055 832.469 377.042 830.018 377.042 827.567 377.042 825.58 375.055 825.58 372.604 825.58 370.153 827.567 368.167 830.018 368.167 832.469 368.167 834.455 370.153 834.455 372.604Z" fill="#000000" fill-rule="nonzero" fill-opacity="1"/><path d="M834.455 390.354C834.455 392.805 832.469 394.792 830.018 394.792 827.567 394.792 825.58 392.805 825.58 390.354 825.58 387.903 827.567 385.917 830.018 385.917 832.469 385.917 834.455 387.903 834.455 390.354Z" fill="#000000" fill-rule="nonzero" fill-opacity="1"/><path d="M924.667 359.179C924.506 350.495 920.45 342.343 913.62 336.977 902.556 327.922 889.554 322.336 875.907 317.452L861.438 311.515C860.33 311.058 859.606 309.977 859.607 308.778L859.607 301.536C870.017 293.191 876.413 280.833 877.215 267.515L877.248 267.48C877.248 267.48 877.248 267.246 877.248 266.835 877.283 266.101 877.36 265.379 877.36 264.637L877.36 239.219C877.36 237.127 877.36 235.607 877.36 235.056 877.887 219.723 869.132 205.581 855.172 199.216 853.763 198.552 852.106 198.699 850.836 199.601L847.848 201.672 844.567 197.175C843.549 195.751 842.019 194.777 840.298 194.456 837.218 193.913 834.098 193.635 830.97 193.625 804.156 193.625 783.155 213.549 782.72 238L782.696 238 782.696 238.491C782.696 238.583 782.696 238.672 782.696 238.763L782.696 238.793 782.696 264.625C782.694 278.974 789.214 292.546 800.417 301.512L800.417 308.778C800.417 309.978 799.692 311.059 798.583 311.515L784.027 317.49C770.775 321.694 758.317 328.081 747.167 336.385L747.699 345.669C753.431 349.935 756.794 356.672 756.758 363.818L756.758 370.681 794.16 370.681 794.615 376.104 796.597 399.771 796.618 400.025 796.618 400.276C796.603 403.698 795.206 406.968 792.743 409.344 790.01 412.079 786.692 414.159 783.039 415.426L783.039 424.715 787.294 425.277C799.405 426.484 810.759 426.981 818.022 427.174L823.986 427.333 825.761 427.333 800.284 323.608 803.082 322.46C805.556 321.434 807.704 319.752 809.295 317.597L809.295 343.287C809.214 343.936 809.674 344.527 810.323 344.607 810.548 344.635 810.776 344.598 810.981 344.5L830.003 333.17 849.04 344.5C849.62 344.801 850.334 344.574 850.635 343.994 850.771 343.73 850.804 343.425 850.726 343.139L850.726 317.606C852.318 319.758 854.465 321.436 856.939 322.46L859.749 323.614 834.278 427.333 837.204 427.333 841.978 427.227C860.926 426.81 906.683 424.564 922.312 412.852L924.678 411.077ZM849.04 315.893 830.018 327.075 810.996 316.041C810.819 315.93 810.612 315.879 810.404 315.893 811.61 313.715 812.246 311.268 812.25 308.778L812.25 308.482C823.633 313.133 836.385 313.133 847.768 308.482L847.768 308.778C847.773 311.216 848.383 313.615 849.543 315.76 849.366 315.757 849.192 315.803 849.04 315.893ZM830.03 300.14C811.162 300.109 795.611 285.331 794.621 266.489L798.086 261.871C799.622 259.822 800.452 257.331 800.452 254.771L800.452 248.671C839.055 248.671 859.619 232.104 859.619 232.104L859.619 254.786C859.619 257.346 860.449 259.837 861.985 261.886L865.435 266.486C864.454 285.331 848.9 300.115 830.03 300.14Z" fill="#000000" fill-rule="nonzero" fill-opacity="1"/><path d="M844.809 433.25 787.299 433.25C787.329 433.104 787.329 432.953 787.299 432.806 787.299 431.771 786.205 430.972 783.809 430.351 782.83 430.158 781.843 430.016 780.85 429.925L779.756 429.818C778.069 429.256 777.123 428.576 777.123 427.925L777.123 410.767C781.475 410.226 785.518 408.235 788.601 405.116 789.938 403.857 790.698 402.102 790.701 400.265L788.719 376.598 760.29 376.598 758.604 400.265C758.556 402.071 759.276 403.812 760.586 405.057 763.761 408.258 767.937 410.273 772.419 410.767L772.419 427.984C772.419 428.665 771.384 429.375 769.875 429.878 768.415 429.968 766.968 430.206 765.556 430.587 763.426 431.209 762.272 431.978 762.065 432.954 762.04 433.117 762.095 433.282 762.213 433.398L748.723 433.398C750.084 432.629 750.853 431.741 750.853 430.795L750.853 363.818C750.876 357.62 747.457 351.922 741.978 349.026L740.351 320.656 742.569 320.656 742.569 319.265C742.582 316.866 741.037 314.735 738.753 314 738.445 313.796 738.087 313.683 737.718 313.674L727.955 313.674C727.585 313.677 727.225 313.79 726.92 314 724.63 314.733 723.075 316.861 723.074 319.265L723.074 320.656 725.293 320.656 723.518 349.026C718.037 351.92 714.617 357.62 714.643 363.818L714.643 430.647C714.643 431.593 715.412 432.481 716.773 433.25L699.851 433.25C696.583 433.25 693.934 435.899 693.934 439.167 693.934 442.434 696.583 445.083 699.851 445.083L844.809 445.083C848.077 445.083 850.726 442.434 850.726 439.167 850.726 435.899 848.077 433.25 844.809 433.25ZM764.029 389.526 764.532 380.651 785.24 380.651 785.862 389.526Z" fill="#000000" fill-rule="nonzero" fill-opacity="1"/></g></g></g></g></svg>